<?xml version="1.0" encoding="UTF-8"?>
<svg version="1.1" xmlns="http://www.w3.org/2000/svg" width="225" height="225">
<path d="M0 0 C74.25 0 148.5 0 225 0 C225 74.25 225 148.5 225 225 C150.75 225 76.5 225 0 225 C0 150.75 0 76.5 0 0 Z " fill="#FDFDFD" transform="translate(0,0)"/>
<path d="M0 0 C0.9590625 -0.00773437 1.918125 -0.01546875 2.90625 -0.0234375 C5.5 0.375 5.5 0.375 7.15039062 1.41943359 C9.22908058 4.43142827 8.81558719 7.54502869 8.6875 11.0625 C8.66719727 12.1153418 8.66719727 12.1153418 8.64648438 13.18945312 C8.61120182 14.91829829 8.55739583 16.64674765 8.5 18.375 C9.08944901 18.36611755 9.67889801 18.35723511 10.28620911 18.3480835 C16.46764343 18.25901416 22.648893 18.19902064 28.83081055 18.15527344 C31.13231827 18.13526173 33.43377582 18.10804369 35.73510742 18.07324219 C39.05920862 18.02426301 42.38263276 18.00192599 45.70703125 17.984375 C46.7220723 17.96372986 47.73711334 17.94308472 48.78291321 17.92181396 C59.19193691 17.91860558 67.92389318 20.77140297 75.48828125 28.0234375 C82.31817807 36.00712272 84.64074499 43.7917245 84.703125 54.09765625 C84.70882507 54.838983 84.71452515 55.58030975 84.72039795 56.34410095 C84.72981783 57.91159656 84.73636992 59.47911171 84.74023438 61.04663086 C84.74987054 63.40580454 84.78089236 65.76407984 84.8125 68.12304688 C84.87343093 76.80490241 84.66833097 85.14302999 81.5 93.375 C80.84 94.035 80.18 94.695 79.5 95.375 C73.92567367 95.09628368 70.49403867 93.93216278 65.5 91.375 C65.51332367 90.81425278 65.52664734 90.25350555 65.54037476 89.67576599 C65.67350671 83.81947863 65.76377118 77.96362359 65.82958984 72.10620117 C65.85969295 69.92275522 65.9005857 67.7394295 65.95263672 65.55639648 C66.02573563 62.41099335 66.05952167 59.2671937 66.0859375 56.12109375 C66.11690521 55.1510289 66.14787292 54.18096405 66.17977905 53.1815033 C66.182663 47.32418257 65.30730122 44.04410478 61.28018188 39.72377014 C55.93095932 35.67088558 50.36543636 36.07864656 43.92993164 36.08447266 C42.8659465 36.07775543 41.80196136 36.07103821 40.70573425 36.06411743 C37.19049402 36.04512794 33.67544457 36.04121293 30.16015625 36.0390625 C27.71544822 36.03263599 25.27074096 36.02590774 22.82603455 36.01889038 C17.70244564 36.00691576 12.57892418 36.00320983 7.45532227 36.00439453 C0.89016488 36.0045979 -5.6745605 35.97727775 -12.23961544 35.94285011 C-17.28823331 35.92061517 -22.33674658 35.91655593 -27.3854084 35.91761398 C-29.80591892 35.91525359 -32.22643213 35.90640552 -34.64689445 35.89094925 C-38.03175032 35.87135603 -41.41566614 35.87710155 -44.80053711 35.88916016 C-45.79969147 35.87792114 -46.79884583 35.86668213 -47.82827759 35.85510254 C-54.90005385 35.91912834 -57.98153232 37.34183821 -63.3125 41.9375 C-66.20316449 45.43672544 -65.69495467 49.7972857 -65.73828125 54.0859375 C-65.746353 54.84991852 -65.75442474 55.61389954 -65.76274109 56.40103149 C-65.7765742 58.02335349 -65.78729982 59.6457045 -65.79516602 61.26806641 C-65.80659758 62.90487371 -65.8269066 64.54164641 -65.85668945 66.17822266 C-66.16924708 83.37063844 -62.81867124 99.3635579 -51.125 112.6875 C-49.6008411 114.26708286 -48.06018108 115.8309866 -46.5 117.375 C-45.90832031 118.00019531 -45.31664062 118.62539062 -44.70703125 119.26953125 C-31.57269401 132.11392727 -13.61366482 135.34429164 4.0234375 136.06640625 C6.5 136.375 6.5 136.375 8.5 138.375 C8.80078125 141.34375 8.80078125 141.34375 8.8125 144.875 C8.82925781 146.0403125 8.84601563 147.205625 8.86328125 148.40625 C8.74339844 149.3859375 8.62351562 150.365625 8.5 151.375 C2.04070182 155.68119878 -9.28466621 154.06893057 -16.75390625 152.6875 C-38.77883597 147.86829718 -58.26658637 135.94387044 -70.875 117.03125 C-76.23846098 108.26405416 -79.9121691 99.31462322 -82.5 89.375 C-82.85964844 88.11042969 -83.21929687 86.84585938 -83.58984375 85.54296875 C-85.00863548 79.00732457 -84.83497116 72.31949933 -84.81567383 65.6640625 C-84.81250655 63.37972563 -84.83606284 61.09667827 -84.86132812 58.8125 C-84.91858539 45.88495574 -82.68611323 36.47963898 -73.94140625 26.6171875 C-66.11041958 19.14300838 -56.10507027 17.77288701 -45.70703125 17.984375 C-44.63498947 17.99003479 -43.56294769 17.99569458 -42.4584198 18.00152588 C-39.07596812 18.02369486 -35.69462475 18.07385438 -32.3125 18.125 C-30.00196856 18.14509017 -27.6914203 18.16333649 -25.38085938 18.1796875 C-19.75353603 18.22349534 -14.12684723 18.29020866 -8.5 18.375 C-8.55220703 16.80298828 -8.55220703 16.80298828 -8.60546875 15.19921875 C-8.63360937 13.82032853 -8.66090924 12.44142098 -8.6875 11.0625 C-8.71263672 10.37220703 -8.73777344 9.68191406 -8.76367188 8.97070312 C-8.83767785 3.86429081 -8.83767785 3.86429081 -7.15039062 1.41943359 C-4.74372906 -0.10359868 -2.82365917 -0.02277144 0 0 Z " fill="#020202" transform="translate(112.5,20.625)"/>
<path d="M0 0 C3 1 3 1 3.99560547 2.76245117 C4.28322754 3.51502197 4.57084961 4.26759277 4.8671875 5.04296875 C5.36025391 6.28336914 5.36025391 6.28336914 5.86328125 7.54882812 C6.53023025 9.28830323 7.19690339 11.02788414 7.86328125 12.76757812 C10.5192984 19.44895978 12.99625235 24.76432942 19.77734375 28.01171875 C21.15722459 28.58699671 22.54422871 29.14545667 23.9375 29.6875 C25.32219111 30.25249535 26.70631542 30.818882 28.08984375 31.38671875 C28.74839355 31.65274902 29.40694336 31.9187793 30.08544922 32.19287109 C32.79012255 33.33309681 35.39476679 34.65049735 38 36 C37 39 37 39 35.23754883 39.99560547 C34.48497803 40.28322754 33.73240723 40.57084961 32.95703125 40.8671875 C31.71663086 41.36025391 31.71663086 41.36025391 30.45117188 41.86328125 C28.71169677 42.53023025 26.97211586 43.19690339 25.23242188 43.86328125 C19.05172965 46.32026176 14.02880982 48.64782946 10.4609375 54.54296875 C10.10257813 55.41566406 9.74421875 56.28835937 9.375 57.1875 C8.97667969 58.13625 8.57835937 59.085 8.16796875 60.0625 C7.58982422 61.5165625 7.58982422 61.5165625 7 63 C6.60425781 63.969375 6.20851562 64.93875 5.80078125 65.9375 C4.85024629 68.2854881 3.91685971 70.63870208 3 73 C1.68 73 0.36 73 -1 73 C-1.22139648 72.45061768 -1.44279297 71.90123535 -1.67089844 71.33520508 C-2.68860713 68.82402741 -3.7191615 66.31831487 -4.75 63.8125 C-5.09804687 62.94818359 -5.44609375 62.08386719 -5.8046875 61.19335938 C-8.76904778 54.02948869 -11.38809306 49.36500606 -18.625 45.9375 C-19.67429688 45.43863281 -20.72359375 44.93976563 -21.8046875 44.42578125 C-26.15456491 42.48482128 -30.54182188 40.67674841 -35 39 C-35 37.68 -35 36.36 -35 35 C-34.39003174 34.75878418 -33.78006348 34.51756836 -33.15161133 34.26904297 C-30.36451426 33.15526337 -27.58877108 32.01548265 -24.8125 30.875 C-23.85279297 30.49601562 -22.89308594 30.11703125 -21.90429688 29.7265625 C-14.17437743 26.51690737 -10.2422033 23.02409869 -6.796875 15.29296875 C-6.10372518 13.59553937 -5.42158235 11.89357746 -4.75 10.1875 C-4.05918543 8.47189248 -3.36657473 6.75700673 -2.671875 5.04296875 C-2.3737793 4.29039795 -2.07568359 3.53782715 -1.76855469 2.76245117 C-1 1 -1 1 0 0 Z " fill="#020202" transform="translate(175,134)"/>
<path d="M0 0 C3.49029792 1.97277708 6.19844633 4.39689265 8 8 C8.60110663 12.58819366 9.04707002 17.09473018 6.765625 21.24609375 C3.82817661 24.74340235 1.66661253 26.69016502 -3.05078125 27.23828125 C-8.56280683 27.41915946 -11.70056765 26.78759517 -16 23 C-19.33271032 19.2229283 -19.61993863 15.38537908 -19.49609375 10.51171875 C-18.66789838 6.31857211 -16.19763024 3.70887329 -13 1 C-9.00469193 -0.99765403 -4.33153639 -0.64943255 0 0 Z " fill="#010101" transform="translate(146,85)"/>
<path d="M0 0 C4.1460495 1.71249871 6.76513235 4.10967484 9 8 C9.83210953 13.02627777 9.5654599 16.84813724 7.3125 21.4375 C3.51727712 25.64301725 0.77284037 27.17741998 -4.875 27.5625 C-9.80027455 27.43734355 -12.2522575 25.88838917 -15.72265625 22.5078125 C-18.71586648 18.97454293 -18.44336891 15.30124724 -18.42578125 10.83984375 C-17.7569677 6.37904146 -15.40998318 3.80926076 -12 1 C-8.31088477 -0.84455761 -4.03542855 -0.35062965 0 0 Z " fill="#010101" transform="translate(89,85)"/>
</svg>
