<svg xmlns="http://www.w3.org/2000/svg" id="Layer_1" data-name="Layer 1" viewBox="16 12 105.42 106.52"><path d="M93.07,22H69V14.8A2.8,2.8,0,0,0,66.2,12H61.8A2.8,2.8,0,0,0,59,14.8V22H34.93A18.94,18.94,0,0,0,16,40.93V52.21A46.79,46.79,0,0,0,62.79,99H66.2A2.8,2.8,0,0,0,69,96.2V91.8A2.8,2.8,0,0,0,66.2,89H62.79A36.79,36.79,0,0,1,26,52.21V40.93A8.93,8.93,0,0,1,34.93,32H93.07A8.93,8.93,0,0,1,102,40.93V53a34.27,34.27,0,0,1-1,8.14,2.79,2.79,0,0,0,1.84,3.34l4.2,1.37a2.79,2.79,0,0,0,3.58-1.95A44.41,44.41,0,0,0,112,53V40.93A18.94,18.94,0,0,0,93.07,22Z"/><circle cx="48" cy="56" r="8"/><circle cx="80" cy="56" r="8"/><path d="M111.73,92.8l9.06,3.57a1,1,0,0,1,0,1.86l-9.06,3.57a12.61,12.61,0,0,0-7.09,7.09l-3.57,9a1,1,0,0,1-1.86,0l-3.57-9a12.58,12.58,0,0,0-7.09-7.09l-9-3.57a1,1,0,0,1,0-1.86l9-3.57a12.58,12.58,0,0,0,7.09-7.09l3.57-9a1,1,0,0,1,1.86,0l3.57,9A12.61,12.61,0,0,0,111.73,92.8Z"/></svg>